<svg width="323" height="323" viewBox="0 0 323 323" fill="none" xmlns="http://www.w3.org/2000/svg">
<rect width="323" height="323" rx="161.5" fill="#333232"/>
<path fill-rule="evenodd" clip-rule="evenodd" d="M58.1195 205.553C55.1195 203.05 109.619 90.5531 109.619 90.5531C109.619 90.5531 134.119 38.0548 149.619 40.0558C165.119 42.0567 176.619 111.556 176.619 111.556L180.096 133.994C198.547 129.499 229.345 128.053 252.62 157.556C288.12 202.555 242.62 252.556 242.62 252.556C193.12 303.056 137.62 271.556 137.62 270.056C137.62 269.794 138.929 269.913 141.212 270.121C152.014 271.102 184.633 274.064 203.62 248.058C226.62 216.556 224.095 179.452 196.62 160.056C193.388 157.775 189.51 155.934 185.632 154.469C187.808 164.465 189.019 179.087 186.774 199.839C181.389 249.622 135.295 229.138 129.351 225.79C123.407 222.443 97.6071 206.644 120.293 173.556C134.726 152.505 154.013 142.858 166.137 138.626C166.755 138.357 167.508 138.041 168.383 137.696C165.23 127.606 158.097 112.46 143.119 108.553C126.874 104.315 92.6668 155.708 72.9203 185.375C64.7106 197.709 59.0004 206.288 58.1195 205.553ZM173.293 149C173.293 149 142.16 155.056 126.16 180.556C110.16 206.056 130.001 218 133.501 220C137.001 222 169.587 236.611 173.293 196.056C177 155.5 173.293 149 173.293 149Z" fill="white"/>
</svg>
